<mxfile host="app.diagrams.net" modified="2023-09-21T11:21:16.690Z" agent="Mozilla/5.0 (Windows NT 10.0; Win64; x64; rv:104.0) Gecko/20100101 Firefox/104.0" version="21.8.0" etag="V5sD0NrsBttLez51TT-k" type="github">
  <diagram name="Page-1" id="IIhsf9-8bQMIV_UBL76E">
    <mxGraphModel>
      <root>
        <mxCell id="0" />
        <mxCell id="1" parent="0" />
      </root>
    </mxGraphModel>
  </diagram>
</mxfile>
